<?xml version="1.0" standalone="no"?>
<!DOCTYPE svg PUBLIC "-//W3C//DTD SVG 20010904//EN"
 "http://www.w3.org/TR/2001/REC-SVG-20010904/DTD/svg10.dtd">
<svg version="1.0" xmlns="http://www.w3.org/2000/svg"
 width="192.000000pt" height="192.000000pt" viewBox="0 0 192.000000 192.000000"
 preserveAspectRatio="xMidYMid meet">

<g transform="translate(0.000000,192.000000) scale(0.100000,-0.100000)"
fill="#000000" stroke="none">
<path d="M1382 1253 c-53 -19 -98 -63 -112 -111 -30 -102 -20 -226 23 -289 22
-33 73 -66 117 -76 20 -5 28 -16 38 -51 15 -56 51 -78 120 -74 44 3 47 5 50
34 3 30 2 31 -39 30 -36 -1 -45 3 -56 24 -12 24 -11 25 35 39 63 18 98 44 125
94 18 36 22 58 22 147 0 117 -19 170 -72 208 -60 42 -171 54 -251 25z m149
-63 c50 -14 78 -48 91 -113 16 -77 -1 -160 -40 -200 -38 -37 -120 -47 -172
-20 -55 28 -72 72 -68 175 3 99 21 135 79 155 43 15 65 15 110 3z"/>
<path d="M220 1020 l0 -240 40 0 40 0 1 168 0 167 65 -127 c56 -112 67 -128
89 -128 21 0 32 16 89 133 l64 132 1 -172 1 -173 40 0 40 0 0 240 0 240 -43 0
-44 0 -74 -154 -75 -154 -77 154 -77 154 -40 0 -40 0 0 -240z"/>
<path d="M864 1028 c-49 -127 -90 -235 -92 -240 -2 -4 16 -8 41 -8 l45 0 22
60 22 60 98 0 98 0 22 -60 22 -60 44 0 c43 0 43 0 33 28 -6 15 -45 117 -86
227 -42 110 -78 206 -80 213 -3 7 -24 12 -52 12 l-48 0 -89 -232z m178 45 l36
-98 -75 -3 c-42 -2 -77 -1 -79 0 -5 6 68 198 75 198 4 0 23 -44 43 -97z"/>
</g>
</svg>
